<svg width="400" height="300" xmlns="http://www.w3.org/2000/svg">
  <defs>
    <linearGradient id="bgGradient" x1="0%" y1="0%" x2="100%" y2="100%">
      <stop offset="0%" style="stop-color:#25D366;stop-opacity:0.1" />
      <stop offset="100%" style="stop-color:#20B858;stop-opacity:0.2" />
    </linearGradient>
  </defs>
  
  <!-- Background -->
  <rect width="400" height="300" fill="url(#bgGradient)"/>
  
  <!-- Calculator -->
  <rect x="150" y="80" width="100" height="120" fill="#2F2F2F" rx="8"/>
  <rect x="160" y="90" width="80" height="20" fill="#000" rx="3"/>
  
  <!-- Calculator buttons -->
  <rect x="165" y="120" width="15" height="15" fill="#555" rx="2"/>
  <rect x="185" y="120" width="15" height="15" fill="#555" rx="2"/>
  <rect x="205" y="120" width="15" height="15" fill="#555" rx="2"/>
  <rect x="225" y="120" width="15" height="15" fill="#25D366" rx="2"/>
  
  <rect x="165" y="140" width="15" height="15" fill="#555" rx="2"/>
  <rect x="185" y="140" width="15" height="15" fill="#555" rx="2"/>
  <rect x="205" y="140" width="15" height="15" fill="#555" rx="2"/>
  <rect x="225" y="140" width="15" height="15" fill="#25D366" rx="2"/>
  
  <!-- Money bills -->
  <rect x="80" y="120" width="50" height="25" fill="#228B22" rx="3"/>
  <rect x="85" y="115" width="50" height="25" fill="#32CD32" rx="3"/>
  <rect x="90" y="110" width="50" height="25" fill="#90EE90" rx="3"/>
  
  <!-- Coins -->
  <circle cx="320" cy="140" r="15" fill="#FFD700"/>
  <circle cx="340" cy="160" r="12" fill="#FFA500"/>
  <circle cx="310" cy="170" r="10" fill="#FF8C00"/>
  
  <!-- Dollar signs -->
  <text x="105" y="125" fill="white" font-family="Arial" font-size="12" font-weight="bold">$</text>
  <text x="325" y="145" fill="white" font-family="Arial" font-size="10" font-weight="bold">$</text>
  
  <!-- Title -->
  <rect x="20" y="220" width="360" height="60" fill="rgba(255,255,255,0.9)" rx="8"/>
  <text x="200" y="245" text-anchor="middle" fill="#2F2F2F" font-family="Arial" font-size="16" font-weight="bold">
    Financiación Flexible
  </text>
  <text x="200" y="265" text-anchor="middle" fill="#666" font-family="Arial" font-size="12">
    Planes de pago adaptados a tu presupuesto
  </text>
</svg>